# xmcd
#
# Track frame offsets: 
#        150
#        16917
#        29042
#        48500
#        61260
#        76760
#        97702
#        117827
#        137367
#        155770
#        170025
#
# Disc length: 2592 seconds
#
# Revision: 0
# Processed by: cddbd v1.5.2PL0 Copyright (c) Steve Scherf et al.
# Submitted via: ExactAudioCopy v1.0b3
#
DISCID=830a1e0b
DTITLE=Kevin Russell - Movin' On
DYEAR=1998
DGENRE=Blues
TTITLE0=Damnation Alley
TTITLE1=I'm Movin' On
TTITLE2=Move Closer To Me
TTITLE3=I Want This
TTITLE4=In Your Younger Day
TTITLE5=Leave You Alone
TTITLE6=A Longtime
TTITLE7=A Walk Through Indian Valley
TTITLE8=Same Thing
TTITLE9=Help Me
TTITLE10=In My Children's Eyes
EXTD=
EXTT0=
EXTT1=
EXTT2=
EXTT3=
EXTT4=
EXTT5=
EXTT6=
EXTT7=
EXTT8=
EXTT9=
EXTT10=
PLAYORDER=
